<svg width="100%" height="100%" viewBox="0 0 1440 390" xmlns="http://www.w3.org/2000/svg"
	class="transition duration-300 ease-in-out delay-150">
	<defs>
		<linearGradient id="gradient" x1="0%" y1="50%" x2="100%" y2="50%">
			<stop offset="5%" stop-color="#F78DA7"></stop>
			<stop offset="95%" stop-color="#8ED1FC"></stop>
		</linearGradient>
	</defs>
	<path
		d="M 0,400 L 0,250 C 82.68717948717949,250.20128205128205 165.37435897435898,250.4025641025641 234,223 C 302.625641025641,195.5974358974359 357.18974358974356,140.59102564102562 446,127 C 534.8102564102564,113.40897435897436 657.8666666666667,141.23333333333335 749,126 C 840.1333333333333,110.76666666666667 899.3435897435897,52.475641025641025 966,18 C 1032.6564102564103,-16.47564102564103 1106.7589743589745,-27.135897435897448 1187,-47 C 1267.2410256410255,-66.86410256410255 1353.6205128205129,-95.93205128205128 1440,-125 L 1440,400 L 0,400 Z"
		stroke="none" stroke-width="0" fill="url(#gradient)" fill-opacity="0.53"
		class="transition-all duration-300 ease-in-out delay-150 path-0"></path>
	<defs>
		<linearGradient id="gradient" x1="0%" y1="50%" x2="100%" y2="50%">
			<stop offset="5%" stop-color="#F78DA7"></stop>
			<stop offset="95%" stop-color="#8ED1FC"></stop>
		</linearGradient>
	</defs>
	<path
		d="M 0,400 L 0,383 C 74.71794871794873,363.8269230769231 149.43589743589746,344.65384615384613 233,342 C 316.56410256410254,339.34615384615387 408.974358974359,353.2115384615385 492,326 C 575.025641025641,298.7884615384615 648.6666666666666,230.49999999999997 727,208 C 805.3333333333334,185.50000000000003 888.3589743589746,208.78846153846155 959,185 C 1029.6410256410254,161.21153846153845 1087.8974358974358,90.34615384615384 1166,53 C 1244.1025641025642,15.65384615384616 1342.0512820512822,11.82692307692308 1440,8 L 1440,400 L 0,400 Z"
		stroke="none" stroke-width="0" fill="url(#gradient)" fill-opacity="1"
		class="transition-all duration-300 ease-in-out delay-150 path-1"></path>
</svg>
