<svg width="2550" height="800" viewBox="0 0 2550 800" xmlns="http://www.w3.org/2000/svg">
	<defs>
		<linearGradient id="bg" x1="100%" y1="0%" x2="0%" y2="0%">
			<stop offset="0%" stop-color="#1e90ff" />
			<stop offset="100%" stop-color="#ffffff" />
		</linearGradient>
	</defs>

	<!-- Background -->
	<rect width="2550" height="800" fill="url(#bg)" />

	<!-- Overlapping rotated diamonds (moved right) -->
	<polygon points="0,0 150,150 0,300 -150,150" fill="#0066cc" opacity="0.3" transform="translate(2550,100)" />
	<polygon points="0,0 200,200 0,400 -200,200" fill="#004b84" opacity="0.4" transform="translate(2550,200)" />
	<polygon points="0,0 250,250 0,500 -250,250" fill="#003366" opacity="0.5" transform="translate(2550,0)" />
	<polygon points="0,0 200,200 0,400 -200,200" fill="#0077cc" opacity="0.25" transform="translate(1850,-200)" />

	<!-- Diagonal parallelograms (moved right) -->
	<polygon points="0,0 400,0 600,200 200,200" fill="#2d7bbc" opacity="0.15" transform="translate(1750,0)" />
	<polygon points="0,0 400,0 600,200 200,200" fill="#005fa3" opacity="0.2" transform="translate(1450,-100)" />

	<!-- Forward-facing transparent triangles (unchanged positionally for balance) -->
	<polygon points="0,800 400,400 800,800" fill="#0077cc" opacity="0.25" />
	<polygon points="600,800 1000,400 1400,800" fill="#3399ff" opacity="0.3" />
	<polygon points="1000,800 1400,400 1800,800" fill="#0077cc" opacity="0.2" />
	<polygon points="1400,800 1800,400 2200,800" fill="#3399ff" opacity="0.2" />
	<polygon points="1800,800 2200,400 2550,800" fill="#0077cc" opacity="0.15" />

	<!-- Extra overlays for depth on right -->
	<polygon points="100,600 400,300 700,600" fill="#004c99" opacity="0.2" transform="translate(1400,200)" />
	<polygon points="200,700 500,400 800,700" fill="#005fbd" opacity="0.15" transform="translate(1500,100)" />
</svg>
