<svg width="2550" height="800" viewBox="0 0 2550 800" style="transform:rotate(0deg); transition: 0.3s" version="1.1"
	xmlns="http://www.w3.org/2000/svg">
	<defs>
		<linearGradient id="sw-gradient-0" x1="0" x2="0" y1="1" y2="0">
			<stop stop-color="rgba(198.45, 109.198, 109.198, 0.65)" offset="0%"></stop>
			<stop stop-color="rgba(214.218, 11, 255, 0.77)" offset="100%"></stop>
		</linearGradient>
	</defs>
	<path style="transform:translate(0, 0px); opacity:1" fill="url(#sw-gradient-0)"
		d="M0,294L13.3,310.3C26.7,327,53,359,80,383.8C106.7,408,133,425,160,424.7C186.7,425,213,408,240,383.8C266.7,359,293,327,320,261.3C346.7,196,373,98,400,81.7C426.7,65,453,131,480,171.5C506.7,212,533,229,560,245C586.7,261,613,278,640,310.3C666.7,343,693,392,720,359.3C746.7,327,773,212,800,155.2C826.7,98,853,98,880,122.5C906.7,147,933,196,960,245C986.7,294,1013,343,1040,367.5C1066.7,392,1093,392,1120,392C1146.7,392,1173,392,1200,400.2C1226.7,408,1253,425,1280,408.3C1306.7,392,1333,343,1360,294C1386.7,245,1413,196,1440,204.2C1466.7,212,1493,278,1520,269.5C1546.7,261,1573,180,1600,163.3C1626.7,147,1653,196,1680,212.3C1706.7,229,1733,212,1760,220.5C1786.7,229,1813,261,1840,245C1866.7,229,1893,163,1907,130.7L1920,98L1920,490L1906.7,490C1893.3,490,1867,490,1840,490C1813.3,490,1787,490,1760,490C1733.3,490,1707,490,1680,490C1653.3,490,1627,490,1600,490C1573.3,490,1547,490,1520,490C1493.3,490,1467,490,1440,490C1413.3,490,1387,490,1360,490C1333.3,490,1307,490,1280,490C1253.3,490,1227,490,1200,490C1173.3,490,1147,490,1120,490C1093.3,490,1067,490,1040,490C1013.3,490,987,490,960,490C933.3,490,907,490,880,490C853.3,490,827,490,800,490C773.3,490,747,490,720,490C693.3,490,667,490,640,490C613.3,490,587,490,560,490C533.3,490,507,490,480,490C453.3,490,427,490,400,490C373.3,490,347,490,320,490C293.3,490,267,490,240,490C213.3,490,187,490,160,490C133.3,490,107,490,80,490C53.3,490,27,490,13,490L0,490Z">
	</path>
	<defs>
		<linearGradient id="sw-gradient-1" x1="0" x2="0" y1="1" y2="0">
			<stop stop-color="rgba(138.598, 45.381, 193.897, 0.56)" offset="0%"></stop>
			<stop stop-color="rgba(77.024, 122.287, 205.281, 1)" offset="100%"></stop>
		</linearGradient>
	</defs>
	<path style="transform:translate(0, 50px); opacity:0.9" fill="url(#sw-gradient-1)"
		d="M0,294L13.3,253.2C26.7,212,53,131,80,138.8C106.7,147,133,245,160,253.2C186.7,261,213,180,240,196C266.7,212,293,327,320,343C346.7,359,373,278,400,261.3C426.7,245,453,294,480,326.7C506.7,359,533,376,560,334.8C586.7,294,613,196,640,163.3C666.7,131,693,163,720,212.3C746.7,261,773,327,800,326.7C826.7,327,853,261,880,212.3C906.7,163,933,131,960,106.2C986.7,82,1013,65,1040,65.3C1066.7,65,1093,82,1120,98C1146.7,114,1173,131,1200,138.8C1226.7,147,1253,147,1280,122.5C1306.7,98,1333,49,1360,65.3C1386.7,82,1413,163,1440,204.2C1466.7,245,1493,245,1520,220.5C1546.7,196,1573,147,1600,179.7C1626.7,212,1653,327,1680,310.3C1706.7,294,1733,147,1760,122.5C1786.7,98,1813,196,1840,196C1866.7,196,1893,98,1907,49L1920,0L1920,490L1906.7,490C1893.3,490,1867,490,1840,490C1813.3,490,1787,490,1760,490C1733.3,490,1707,490,1680,490C1653.3,490,1627,490,1600,490C1573.3,490,1547,490,1520,490C1493.3,490,1467,490,1440,490C1413.3,490,1387,490,1360,490C1333.3,490,1307,490,1280,490C1253.3,490,1227,490,1200,490C1173.3,490,1147,490,1120,490C1093.3,490,1067,490,1040,490C1013.3,490,987,490,960,490C933.3,490,907,490,880,490C853.3,490,827,490,800,490C773.3,490,747,490,720,490C693.3,490,667,490,640,490C613.3,490,587,490,560,490C533.3,490,507,490,480,490C453.3,490,427,490,400,490C373.3,490,347,490,320,490C293.3,490,267,490,240,490C213.3,490,187,490,160,490C133.3,490,107,490,80,490C53.3,490,27,490,13,490L0,490Z">
	</path>
	<defs>
		<linearGradient id="sw-gradient-2" x1="0" x2="0" y1="1" y2="0">
			<stop stop-color="rgba(243, 62, 113.816, 0.77)" offset="0%"></stop>
			<stop stop-color="rgba(48.888, 11, 255, 0.72)" offset="100%"></stop>
		</linearGradient>
	</defs>
	<path style="transform:translate(0, 100px); opacity:0.8" fill="url(#sw-gradient-2)"
		d="M0,0L13.3,0C26.7,0,53,0,80,32.7C106.7,65,133,131,160,130.7C186.7,131,213,65,240,81.7C266.7,98,293,196,320,253.2C346.7,310,373,327,400,334.8C426.7,343,453,343,480,310.3C506.7,278,533,212,560,179.7C586.7,147,613,147,640,147C666.7,147,693,147,720,138.8C746.7,131,773,114,800,114.3C826.7,114,853,131,880,179.7C906.7,229,933,310,960,318.5C986.7,327,1013,261,1040,245C1066.7,229,1093,261,1120,285.8C1146.7,310,1173,327,1200,310.3C1226.7,294,1253,245,1280,245C1306.7,245,1333,294,1360,302.2C1386.7,310,1413,278,1440,245C1466.7,212,1493,180,1520,163.3C1546.7,147,1573,147,1600,187.8C1626.7,229,1653,310,1680,294C1706.7,278,1733,163,1760,106.2C1786.7,49,1813,49,1840,89.8C1866.7,131,1893,212,1907,253.2L1920,294L1920,490L1906.7,490C1893.3,490,1867,490,1840,490C1813.3,490,1787,490,1760,490C1733.3,490,1707,490,1680,490C1653.3,490,1627,490,1600,490C1573.3,490,1547,490,1520,490C1493.3,490,1467,490,1440,490C1413.3,490,1387,490,1360,490C1333.3,490,1307,490,1280,490C1253.3,490,1227,490,1200,490C1173.3,490,1147,490,1120,490C1093.3,490,1067,490,1040,490C1013.3,490,987,490,960,490C933.3,490,907,490,880,490C853.3,490,827,490,800,490C773.3,490,747,490,720,490C693.3,490,667,490,640,490C613.3,490,587,490,560,490C533.3,490,507,490,480,490C453.3,490,427,490,400,490C373.3,490,347,490,320,490C293.3,490,267,490,240,490C213.3,490,187,490,160,490C133.3,490,107,490,80,490C53.3,490,27,490,13,490L0,490Z">
	</path>
</svg>
